# xmcd CD database file
#
# Track frame offsets:
#	150
#	5648
#	30313
#	57071
#	80104
#	102007
#	131438
#	148769
#	169234
#	189226
#
# Disc length: 2809 seconds
#
# Revision: 2
# Processed by: cddbd v1.4b41PL1 Copyright (c) Steve Scherf et al.
# Submitted via: Feurio! 1.50.2ß - http://www.feurio.com
#
DISCID=7b0af70a
DTITLE=Senor Coconut - El Baile Aleman
DYEAR=1900
DGENRE=
TTITLE0=Track: 1
TTITLE1=Track: 2
TTITLE2=Track: 3
TTITLE3=Track: 4
TTITLE4=Track: 5
TTITLE5=Track: 6
TTITLE6=Track: 7
TTITLE7=Track: 8
TTITLE8=Track: 9
TTITLE9=Track: 10
EXTD=
EXTT0=
EXTT1=
EXTT2=
EXTT3=
EXTT4=
EXTT5=
EXTT6=
EXTT7=
EXTT8=
EXTT9=
PLAYORDER=
